<?xml version="1.0" encoding="UTF-8"?>
<!DOCTYPE svg PUBLIC "-//W3C//DTD SVG 1.1//EN" "http://www.w3.org/Graphics/SVG/1.1/DTD/svg11.dtd">
<!-- Creator: CorelDRAW 2020 (64-Bit) -->
<svg xmlns="http://www.w3.org/2000/svg" xml:space="preserve" width="48mm" height="40mm" version="1.1" style="shape-rendering:geometricPrecision; text-rendering:geometricPrecision; image-rendering:optimizeQuality; fill-rule:evenodd; clip-rule:evenodd"
viewBox="0 0 4800 4000"
 xmlns:xlink="http://www.w3.org/1999/xlink"
 xmlns:xodm="http://www.corel.com/coreldraw/odm/2003">
 <defs>
  <style type="text/css">
   <![CDATA[
    .fil1 {fill:#FFF}
    .fil0 {fill:#FFF}
   ]]>
  </style>
 </defs>
 <g id="Слой_x0020_1">
  <metadata id="CorelCorpID_0Corel-Layer"/>
  <path class="fil0" d="M318.47 2178.7c0.03,1085.78 -177.35,1337.15 -203.72,1795.59 659.31,-413.39 1386.46,-1082.1 2462.46,-479.87l713.24 461.87c-173.87,-580.03 -882.05,-1813.33 -1227.55,-2298.87 -394.98,-555.08 -1337.99,-1445.72 -1989.03,-1564.44 112.14,715.97 244.6,1319.21 244.6,2085.72z"/>
  <path class="fil1" d="M3152.22 3216.64c811.89,80.69 1100.77,497.36 1490.55,675.68 -484.84,-1958.07 -306.69,-1960.63 64.18,-3846.19 -344.58,105.76 -751.84,362.14 -989.65,546.16 -299.27,231.58 -531.74,464.17 -767.27,744.7 -832.94,992.1 -276.57,512.56 202.19,1879.65z"/>
  <path class="fil1" d="M1508.51 3907.36l451.03 -303.08c36.44,-24.26 43.65,-23.25 82.13,-51.93l57.75 -50.59c4.31,-4 12.22,-12.96 18.26,-19.51l-399.44 -57.86c-76.16,142.16 -166.02,324.5 -209.73,482.97z"/>
 </g>
</svg>
